<svg height="512pt" viewBox="0 -26 512.00004 512" fill="#2982dd" width="512pt" xmlns="http://www.w3.org/2000/svg"><path d="m482 0h-370.011719c-5.523437 0-10 4.476562-10 10s4.476563 10 10 10h370.011719c5.515625 0 10 4.484375 10 10h-472c0-5.515625 4.484375-10 10-10h13.023438c5.523437 0 10-4.476562 10-10s-4.476563-10-10-10h-13.023438c-16.542969 0-30 13.457031-30 30v320c0 16.542969 13.457031 30 30 30h173.195312l-15 60h-23.230468c-5.523438 0-10 4.476562-10 10s4.476562 10 10 10h182.070312c5.523438 0 10-4.476562 10-10s-4.476562-10-10-10h-23.226562l-15-60h173.191406c16.542969 0 30-13.457031 30-30v-320c0-16.542969-13.457031-30-30-30zm-178.808594 440h-94.382812l15-60h64.382812zm178.808594-80h-452c-5.515625 0-10-4.484375-10-10v-7.160156h176.179688l7.226562 5.25c1.707031 1.242187 3.765625 1.910156 5.875 1.910156h93.4375c2.113281 0 4.167969-.667969 5.878906-1.910156l7.222656-5.25h86.179688c5.523438 0 10-4.476563 10-10 0-5.523438-4.476562-10-10-10h-89.425781c-2.113281 0-4.171875.667968-5.878907 1.910156l-7.226562 5.25h-86.9375l-7.226562-5.25c-1.707032-1.242188-3.765626-1.910156-5.878907-1.910156h-179.425781v-272.839844h472v272.839844h-21.035156c-5.519532 0-10 4.476562-10 10 0 5.523437 4.480468 10 10 10h21.035156v7.160156c0 5.515625-4.484375 10-10 10zm0 0"/><path d="m71.753906 20h.269532c5.523437 0 10-4.476562 10-10s-4.476563-10-10-10h-.269532c-5.523437 0-10 4.476562-10 10s4.476563 10 10 10zm0 0"/><path d="m442.234375 322.839844h-.269531c-5.523438 0-10 4.476562-10 10 0 5.523437 4.476562 10 10 10h.269531c5.523437 0 10-4.476563 10-10 0-5.523438-4.476563-10-10-10zm0 0"/><path d="m419.996094 284.417969h-11.601563v-148h11.601563c3.949218 0 7.527344-2.324219 9.136718-5.929688 1.605469-3.609375.9375-7.824219-1.703124-10.757812l-43.199219-48.003907c-1.898438-2.105468-4.597657-3.308593-7.433594-3.308593s-5.535156 1.203125-7.433594 3.308593l-43.199219 48.003907c-2.644531 2.933593-3.308593 7.148437-1.703124 10.757812 1.609374 3.605469 5.1875 5.929688 9.136718 5.929688h11.597656v148h-57.59375v-134c0-5.523438-4.480468-10-10-10h-43.199218c-5.523438 0-10 4.476562-10 10v134h-60.796875v-46c0-5.523438-4.476563-10-10-10h-40c-5.523438 0-10 4.476562-10 10v46h-11.601563c-5.523437 0-10 4.480469-10 10 0 5.523437 4.476563 10 10 10h327.992188c5.523437 0 10-4.476563 10-10 0-5.519531-4.476563-10-10-10zm-276.390625 0h-20v-35.996094h20zm100.792969-124h23.199218v124h-23.199218zm111.621093-43.964844 20.777344-23.085937 20.777344 23.085937c-5.136719.417969-9.179688 4.722656-9.179688 9.96875v158h-23.199219v-158c0-5.246094-4.039062-9.550781-9.175781-9.96875zm0 0"/><path d="m103.605469 168.417969h-5c-5.523438 0-10 4.476562-10 10 0 5.523437 4.476562 10 10 10h5v10c0 5.523437 4.476562 10 10 10 5.523437 0 10-4.476563 10-10v-10h20v10c0 5.523437 4.476562 10 10 10 5.523437 0 10-4.476563 10-10v-10.421875c14.167969-2.390625 25-14.738282 25-29.578125 0-9.089844-4.070313-17.242188-10.480469-22.75 3.445312-4.882813 5.480469-10.832031 5.480469-17.25 0-13.035157-8.363281-24.152344-20-28.277344v-11.722656c0-5.523438-4.476563-10-10-10-5.523438 0-10 4.476562-10 10v10h-20v-10c0-5.523438-4.476563-10-10-10-5.523438 0-10 4.476562-10 10v10h-5c-5.523438 0-10 4.476562-10 10 0 5.523437 4.476562 10 10 10h5zm20-60h30c5.511719 0 10 4.488281 10 10 0 5.515625-4.488281 10-10 10h-30zm35 60h-35v-20h35c5.511719 0 10 4.488281 10 10 0 5.515625-4.488281 10-10 10zm0 0"/></svg>