<svg height="511pt" viewBox="-35 1 511 511.99952" fill="#2982dd" width="511pt" xmlns="http://www.w3.org/2000/svg"><path d="m71.304688 89.386719c1.085937 0 2.191406-.179688 3.277343-.554688.09375-.035156.1875-.066406.285157-.105469 4.988281-1.746093 7.785156-7.113281 6.285156-12.242187-1.554688-5.300781-7.105469-8.34375-12.40625-6.789063-.292969.085938-.59375.1875-.902344.304688-5.097656 1.878906-7.773438 7.503906-5.984375 12.660156 1.429687 4.132813 5.304687 6.726563 9.445313 6.726563zm0 0"/><path d="m433.125 88.652344c-71.351562-19.378906-143.128906-49.5625-207.570312-87.28125-3.121094-1.828125-6.984376-1.828125-10.105469 0-35.449219 20.75-72.136719 38.910156-109.050781 53.980468l-1.792969.730469c-5.125 2.0625-7.605469 7.886719-5.542969 13.011719s7.886719 7.609375 13.011719 5.542969c.5625-.226563 1.132812-.460938 1.699219-.691407l.191406-.078124c36.03125-14.710938 71.84375-32.292969 106.539062-52.304688 62.398438 35.945312 131.269532 64.988281 200 84.347656v102.785156c0 106.433594-49.46875 176.832032-90.96875 217.144532-47.164062 45.816406-97.761718 66.160156-109.03125 66.160156-11.273437 0-61.871094-20.34375-109.035156-66.160156-41.5-40.3125-90.96875-110.710938-90.96875-217.144532v-102.78125c8.730469-2.453124 17.417969-5.035156 25.921875-7.707031 5.269531-1.65625 8.195313-7.269531 6.539063-12.535156-1.652344-5.273437-7.265626-8.199219-12.535157-6.542969-10.648437 3.34375-21.597656 6.546875-32.550781 9.523438-4.351562 1.183594-7.375 5.136718-7.375 9.648437v110.394531c0 113.421876 52.765625 188.488282 97.03125 231.488282 47.601562 46.242187 102.925781 71.816406 122.96875 71.816406s75.371094-25.574219 122.96875-71.816406c44.265625-43 97.03125-118.066406 97.03125-231.488282v-110.394531c.003906-4.511719-3.019531-8.464843-7.375-9.648437zm0 0"/><path d="m366.621094 360.878906c27.792968-45.046875 41.882812-96.25 41.882812-152.183594v-86.292968c0-4.40625-2.882812-8.296875-7.101562-9.570313-60.898438-18.4375-120.117188-43.574219-176.019532-74.714843-3.03125-1.6875-6.71875-1.683594-9.746093.003906-55.960938 31.261718-115.183594 56.402344-176.019531 74.726562-4.222657 1.273438-7.117188 5.164063-7.117188 9.574219v86.273437c0 39.257813 7.042969 76.546876 20.933594 110.835938 14.03125 34.640625 35.058594 66.210938 62.488281 93.832031 19.386719 19.523438 41.765625 36.722657 64.71875 49.742188 4.113281 2.332031 25.253906 14.085937 37.953125 16.558593.628906.121094 1.269531.183594 1.910156.183594s1.28125-.0625 1.914063-.183594c12.695312-2.472656 33.839843-14.226562 37.949219-16.558593 22.082031-12.523438 43.726562-28.992188 62.589843-47.617188 3.929688-3.878906 3.96875-10.210937.085938-14.140625-3.878907-3.933594-10.210938-3.972656-14.140625-.089844-17.628906 17.410157-37.824219 32.78125-58.402344 44.449219-9.875 5.605469-22.761719 11.832031-29.996094 13.859375-7.234375-2.027344-20.121094-8.257812-29.996094-13.859375-21.390624-12.132812-42.273437-28.1875-60.394531-46.4375-50.773437-51.125-77.609375-117.023437-77.609375-190.574219v-78.875c57.960938-17.988281 114.421875-42.027343 168.019532-71.535156 53.527343 29.394532 109.984374 53.421875 167.984374 71.503906v78.90625c0 52.167969-13.089843 99.839844-38.90625 141.683594-2.898437 4.699219-1.441406 10.859375 3.257813 13.761719 4.699219 2.898437 10.859375 1.441406 13.761719-3.261719zm0 0"/><path d="m335.945312 386.699219c1.828126 1.421875 3.996094 2.113281 6.148438 2.113281 2.96875 0 5.910156-1.316406 7.878906-3.839844l.167969-.21875c3.394531-4.351562 2.625-10.636718-1.730469-14.035156-4.351562-3.394531-10.636718-2.625-14.035156 1.730469l-.164062.214843c-3.394532 4.355469-2.617188 10.640626 1.734374 14.035157zm0 0"/><path d="m260.023438 235.601562c3.445312-4.886718 5.480468-10.832031 5.480468-17.25 0-13.039062-8.363281-24.152343-20-28.28125v-11.71875c0-5.523437-4.480468-10-10-10-5.523437 0-10 4.476563-10 10v10h-20v-10c0-5.523437-4.476562-10-10-10-5.523437 0-10 4.476563-10 10v10h-5c-5.523437 0-10 4.476563-10 10 0 5.523438 4.476563 10 10 10h5v60h-5c-5.523437 0-10 4.476563-10 10 0 5.519532 4.476563 10 10 10h5v10c0 5.519532 4.476563 10 10 10 5.523438 0 10-4.480468 10-10v-10h20v10c0 5.519532 4.476563 10 10 10 5.519532 0 10-4.480468 10-10v-10.425781c14.167969-2.390625 24.996094-14.738281 24.996094-29.574219 0-9.09375-4.070312-17.246093-10.476562-22.75zm-54.519532-27.25h30c5.511719 0 9.996094 4.484376 9.996094 10 0 5.511719-4.484375 10-9.996094 10h-30zm34.996094 60h-35v-20h35c5.515625 0 10 4.484376 10 10 0 5.511719-4.484375 10-10 10zm0 0"/><path d="m341.746094 308.351562c.097656-.167968.175781-.34375.261718-.515624 11.761719-20.488282 18.496094-44.214844 18.496094-69.484376 0-25.269531-6.730468-48.992187-18.492187-69.480468-.085938-.175782-.167969-.351563-.265625-.519532-.132813-.234374-.28125-.453124-.429688-.667968-12.148437-20.6875-29.457031-37.996094-50.144531-50.144532-.214844-.148437-.4375-.296874-.667969-.433593-.167968-.097657-.347656-.179688-.519531-.265625-20.488281-11.757813-44.210937-18.492188-69.480469-18.492188-25.261718 0-48.984375 6.730469-69.46875 18.484375-.175781.089844-.355468.171875-.53125.273438-.234375.136719-.453125.285156-.675781.4375-20.679687 12.144531-37.980469 29.441406-50.125 50.121093-.152344.222657-.304687.445313-.441406.683594-.105469.175782-.1875.359375-.277344.542969-11.75 20.476563-18.476563 44.191406-18.480469 69.445313v.011718.011719c.003906 25.253906 6.730469 48.96875 18.476563 69.445313.09375.183593.175781.363281.277343.542968.097657.167969.214844.316406.320313.476563 12.152344 20.769531 29.5 38.144531 50.25 50.328125.21875.152344.441406.304687.675781.441406.121094.066406.25.117188.371094.179688 20.519531 11.8125 44.300781 18.574218 69.628906 18.574218 25.335938 0 49.117188-6.761718 69.640625-18.578125.117188-.0625.242188-.109375.359375-.175781.226563-.132812.4375-.277344.648438-.425781 20.769531-12.1875 38.128906-29.574219 50.289062-50.363281.097656-.152344.210938-.292969.304688-.453126zm-52.816406 28.519532-2.515626-4.359375c-2.761718-4.785157-8.875-6.425781-13.660156-3.660157-4.78125 2.757813-6.421875 8.875-3.660156 13.65625l2.535156 4.390626c-12.660156 5.988281-26.527344 9.820312-41.125 11.03125v-5.078126c0-5.523437-4.480468-10-10-10-5.523437 0-10 4.476563-10 10v5.078126c-14.601562-1.210938-28.464844-5.042969-41.125-11.03125l2.535156-4.390626c2.761719-4.78125 1.121094-10.898437-3.660156-13.660156-4.78125-2.757812-10.898437-1.121094-13.660156 3.660156l-2.515625 4.359376c-11.726563-8.164063-21.925781-18.367188-30.09375-30.089844l4.359375-2.515625c4.78125-2.761719 6.421875-8.878907 3.660156-13.660157-2.761718-4.785156-8.878906-6.421874-13.660156-3.660156l-4.386719 2.53125c-5.988281-12.660156-9.820312-26.523437-11.03125-41.125h5.078125c5.523438 0 10-4.476562 10-10 0-5.519531-4.476562-10-10-10h-5.078125c1.210938-14.597656 5.042969-28.464844 11.03125-41.121094l4.386719 2.53125c1.574219.910157 3.292969 1.34375 4.992188 1.34375 3.457031 0 6.816406-1.792968 8.667968-5.003906 2.761719-4.78125 1.125-10.898437-3.660156-13.660156l-4.359375-2.515625c8.167969-11.722656 18.371094-21.925781 30.09375-30.09375l2.515625 4.359375c1.851562 3.207031 5.214844 5.003906 8.667969 5.003906 1.699219 0 3.417969-.433594 4.992187-1.34375 4.785156-2.761718 6.421875-8.875 3.660156-13.660156l-2.535156-4.386719c12.660156-5.988281 26.527344-9.820312 41.125-11.03125v5.078125c0 5.523438 4.476563 10 10 10 5.523438 0 10-4.476562 10-10v-5.078125c14.597656 1.210938 28.464844 5.042969 41.125 11.03125l-2.535156 4.386719c-2.761719 4.785156-1.125 10.898438 3.660156 13.660156 1.574219.910156 3.292969 1.34375 4.988282 1.34375 3.457031 0 6.816406-1.796875 8.671874-5.003906l2.515626-4.359375c11.722656 8.167969 21.925781 18.367187 30.09375 30.09375l-4.359376 2.515625c-4.785156 2.761719-6.421874 8.878906-3.660156 13.660156 1.851563 3.207032 5.210938 5.003906 8.667969 5.003906 1.695313 0 3.417969-.433593 4.992187-1.34375l4.386719-2.535156c5.984375 12.660156 9.820313 26.527344 11.03125 41.125h-5.078125c-5.523437 0-10 4.476563-10 10 0 5.523438 4.476563 10 10 10h5.078125c-1.210937 14.601563-5.046875 28.464844-11.03125 41.125l-4.386719-2.535156c-4.785156-2.757812-10.898437-1.121094-13.660156 3.660156-2.761718 4.785156-1.125 10.898438 3.660156 13.660156l4.359376 2.519532c-8.167969 11.722656-18.371094 21.925781-30.09375 30.09375zm0 0"/></svg>