<svg height="512.00002pt" viewBox="0 0 512.00002 512.00002" fill="#2982dd" width="512.00002pt" xmlns="http://www.w3.org/2000/svg"><path d="m472.945312 492c-21.757812-.15625-31.890624-65.847656-40.03125-118.628906-5.6875-36.863282-11.566406-74.984375-21.5625-104.289063-5.671874-16.617187-12.171874-29.015625-19.878906-37.90625-9.597656-11.066406-21.101562-16.675781-34.199218-16.675781-13.277344 0-24.992188 5.769531-34.824219 17.148438-1.765625 2.046874-3.472657 4.28125-5.121094 6.695312-7.125-45.457031-14.152344-87.917969-23.671875-120.683594-8.191406-28.183594-22.503906-65.660156-52.140625-65.660156-30.003906 0-45.027344 38.613281-53.71875 67.65625-11.148437 37.238281-19.3125 86.3125-27.960937 138.269531-3.011719 18.097657-6.054688 36.382813-9.261719 54.355469-6.324219-5.804688-14.496094-10.285156-24.816407-10.285156-24.804687 0-37.878906 25.96875-42.179687 34.5-9.164063 18.199218-16.488281 42.375-23.574219 65.75-10.78125 35.566406-22.777344 75.144531-40.003906 86.53125v-166.78125h10c5.523438 0 10-4.480469 10-10-.003906-5.523438-4.480469-10-10.003906-10h-9.996094v-63.332032h10c5.523438 0 10-4.480468 10-10-.003906-5.523437-4.480469-10-10.003906-10h-9.996094v-63.332031h10c5.523438 0 10-4.476562 10-10-.003906-5.523437-4.480469-10-10.003906-10l-9.996094.003907v-63.335938h17.550781c5.523438 0 10-4.476562 10-10s-4.476562-10-10-10h-17.550781v-42c0-5.523438-4.476562-10-10-10s-10 4.476562-10 10l.00390625 492v.011719.019531.003906c.01562495 5.3125 4.17968775 9.648438 9.42187475 9.949219.1875.007813.382813.015625.578125.015625h462.871094c5.507812 0 9.976562-4.457031 10-9.964844.019531-5.507812-4.421875-9.996094-9.929688-10.035156zm-393.800781-83.949219c12.226563-40.335937 26.082031-86.050781 46.613281-86.050781 7.574219 0 14.121094 6.40625 19.953126 16.488281-5.863282 30.226563-12.40625 58.78125-20.316407 83.054688-15.441406 47.410156-33.320312 70.457031-54.652343 70.457031-.011719 0-.019532 0-.03125 0h-25.9375c14.992187-20.019531 24.78125-52.316406 34.371093-83.949219zm32.507813 83.949219c1.511718-1.675781 3-3.4375 4.453125-5.320312 10.589843-13.703126 19.847656-32.980469 28.304687-58.945313 5.609375-17.21875 10.527344-36.378906 14.996094-56.648437 3.683594 11.003906 7.097656 22.785156 10.390625 34.125 7.171875 24.726562 14.589844 50.296874 24.621094 69.921874 3.320312 6.492188 6.828125 12.109376 10.535156 16.867188zm129.949218 0h-.214843c-25.640625-.167969-39.847657-49.144531-52.382813-92.359375-6.925781-23.871094-13.464844-46.417969-22.171875-64.074219-.046875-.09375-.097656-.195312-.144531-.292968 4.585938-24.242188 8.761719-49.324219 12.878906-74.0625 8.539063-51.316407 16.605469-99.789063 27.390625-135.820313 10.453125-34.929687 22.402344-53.390625 34.558594-53.390625 11.808594 0 23.195313 17.722656 32.9375 51.242188 10.125 34.847656 17.484375 82.074218 25.28125 132.074218.773437 4.960938 1.550781 9.9375 2.332031 14.917969-.042968.117187-.085937.234375-.125.355469-10.4375 30.136718-16.726562 69.039062-22.804687 106.660156-5.148438 31.875-10.015625 61.984375-16.9375 84.113281-4.359375 13.9375-11.464844 30.539063-20.597657 30.636719zm57.277344-111.558594c3.25-20.101562 6.746094-41.71875 11.050782-61.996094 6.675781 38.660157 14.3125 75.800782 24.457031 106.992188 9.796875 30.128906 21.351562 52.226562 34.851562 66.5625h-98.386719c13.816407-23.613281 20.59375-65.542969 28.027344-111.558594zm113.414063 111.558594c-23.707031 0-42.96875-23.796875-58.886719-72.746094-13.40625-41.226562-22.441406-94.101562-30.761719-146.882812 8.492188-22.597656 19.511719-37.871094 34.628907-37.871094 33.980468 0 45.609374 75.398438 55.871093 141.921875 5.160157 33.457031 10.035157 65.058594 17.683594 89.382813 1.726563 5.484374 5.148437 16.371093 11.3125 26.199218zm0 0"/><path d="m502 492h-.269531c-5.519531 0-10 4.476562-10 10s4.480469 10 10 10h.269531c5.523438 0 10-4.476562 10-10s-4.476562-10-10-10zm0 0"/><path d="m180.171875 57c-2.761719-4.78125-8.875-6.417969-13.660156-3.660156-4.78125 2.761718-6.417969 8.878906-3.660157 13.660156 2.761719 4.785156 8.878907 6.421875 13.660157 3.660156 4.785156-2.761718 6.421875-8.875 3.660156-13.660156zm0 0"/><path d="m145.175781 57c-2.761719-4.78125-8.878906-6.421875-13.660156-3.660156-4.785156 2.761718-6.421875 8.878906-3.660156 13.660156 2.761719 4.785156 8.875 6.421875 13.660156 3.660156 4.78125-2.761718 6.421875-8.875 3.660156-13.660156zm0 0"/><path d="m110.175781 57c-2.761719-4.78125-8.875-6.421875-13.660156-3.660156-4.78125 2.761718-6.421875 8.878906-3.660156 13.660156 2.761719 4.785156 8.878906 6.421875 13.660156 3.660156 4.785156-2.761718 6.421875-8.875 3.660156-13.660156zm0 0"/><path d="m145.175781 140.328125c-2.761719-4.78125-8.878906-6.421875-13.660156-3.660156-4.785156 2.761719-6.421875 8.878906-3.660156 13.660156s8.875 6.421875 13.660156 3.660156c4.78125-2.761719 6.421875-8.878906 3.660156-13.660156zm0 0"/><path d="m110.175781 140.328125c-2.761719-4.78125-8.875-6.421875-13.660156-3.660156-4.78125 2.761719-6.421875 8.878906-3.660156 13.660156 2.761719 4.785156 8.878906 6.421875 13.660156 3.660156 4.785156-2.761719 6.421875-8.875 3.660156-13.660156zm0 0"/><path d="m75.179688 140.328125c-2.761719-4.78125-8.878907-6.421875-13.660157-3.660156-4.785156 2.761719-6.421875 8.878906-3.660156 13.660156s8.875 6.421875 13.660156 3.660156c4.78125-2.761719 6.421875-8.878906 3.660157-13.660156zm0 0"/><path d="m110.175781 223.660156c-2.761719-4.78125-8.878906-6.421875-13.660156-3.660156-4.785156 2.761719-6.421875 8.878906-3.660156 13.660156 2.761719 4.785156 8.875 6.421875 13.660156 3.660156 4.78125-2.761718 6.421875-8.875 3.660156-13.660156zm0 0"/><path d="m75.179688 223.65625c-2.761719-4.78125-8.878907-6.421875-13.660157-3.660156-4.785156 2.761718-6.421875 8.878906-3.660156 13.660156 2.761719 4.785156 8.875 6.421875 13.660156 3.660156 4.78125-2.761718 6.421875-8.875 3.660157-13.660156zm0 0"/><path d="m512 90c0-9.089844-4.070312-17.246094-10.476562-22.75 3.445312-4.882812 5.476562-10.832031 5.476562-17.25 0-13.035156-8.359375-24.152344-20-28.277344v-11.722656c0-5.523438-4.476562-10-10-10s-10 4.476562-10 10v10h-20v-10c0-5.523438-4.476562-10-10-10s-10 4.476562-10 10v10h-5c-5.523438 0-10 4.476562-10 10s4.476562 10 10 10h5v60h-5c-5.523438 0-10 4.476562-10 10s4.476562 10 10 10h5v10c0 5.523438 4.476562 10 10 10s10-4.476562 10-10v-10h20v10c0 5.523438 4.476562 10 10 10s10-4.476562 10-10v-10.425781c14.167969-2.386719 25-14.738281 25-29.574219zm-65-50h30c5.515625 0 10 4.484375 10 10s-4.484375 10-10 10h-30zm0 40h35c5.515625 0 10 4.484375 10 10s-4.484375 10-10 10h-35zm0 0"/><path d="m66.28125 72h.238281c5.519531 0 10-4.476562 10-10 0-5.519531-4.480469-10-10-10h-.238281c-5.519531 0-10 4.480469-10 10 0 5.523438 4.480469 10 10 10zm0 0"/></svg>