<svg height="511pt" viewBox="1 1 511.99999 511" fill="#2982dd" width="511pt" xmlns="http://www.w3.org/2000/svg"><path d="m395.636719 266.5h86.363281c5.523438 0 10-4.476562 10-10v-51.105469c11.640625-4.125 20-15.242187 20-28.277343 0-16.542969-13.457031-30-30-30s-30 13.457031-30 30c0 13.035156 8.359375 24.152343 20 28.277343v41.105469h-76.363281c-2.371094-33.457031-16.546875-63.703125-38.382813-86.585938v-18.878906h64.746094c5.523438 0 10-4.476562 10-10v-25.636718c11.640625-4.128907 20-15.242188 20-28.28125 0-16.542969-13.457031-30-30-30s-30 13.457031-30 30c0 13.035156 8.363281 24.152343 20 28.28125v15.636718h-64.746094c-5.523437 0-10 4.476563-10 10v11.523438c-20.378906-14.574219-44.8125-23.820313-71.253906-25.695313v-20.828125h40c5.523438 0 10-4.476562 10-10v-27.253906c11.640625-4.128906 20-15.246094 20-28.28125 0-16.542969-13.457031-30-30-30s-30 13.457031-30 30c0 13.035156 8.359375 24.152344 20 28.28125v17.253906h-40c-5.523438 0-10 4.476563-10 10v30.839844c-14.324219 1.035156-28.453125 4.277344-41.792969 9.578125v-73.664063c0-5.523437-4.476562-10-10-10h-22.644531c-4.128906-11.640624-15.242188-20-28.28125-20-16.542969 0-30 13.457032-30 30 0 16.539063 13.457031 30 30 30 13.035156 0 24.152344-8.363281 28.28125-20h12.644531v79.28125c0 .355469.015625.710938.050781 1.066407.007813.058593.019532.113281.027344.167969.03125.265624.066406.53125.121094.796874.03125.152344.074219.300782.113281.449219.039063.167969.074219.332031.125.496094.074219.242187.164063.472656.253907.707031.027343.070313.050781.144532.078124.214844.257813.621094.578126 1.214844.953126 1.765625.085937.128906.179687.242187.269531.363281.101562.136719.199219.277344.308593.40625.144532.171875.296876.332032.449219.496094.066407.070312.132813.144531.199219.214844.160156.160156.332031.304687.5.453125.074219.066406.144531.132812.222656.195312.15625.128907.320313.246094.484375.363281.101563.074219.199219.152344.304688.222657.140625.089843.285156.171875.425781.257812.140625.082031.277344.167969.417969.246094.117187.0625.238281.113281.355469.171875.175781.082031.351562.167969.53125.246094.101562.039062.207031.074218.308593.109375.199219.074219.398438.152343.605469.214843.113281.03125.226562.058594.335938.085938.199218.050781.394531.105469.597656.148438.214844.042968.429687.070312.644531.097656.105469.015625.203125.035156.304687.046875.671876.066406 1.347657.066406 2.023438 0 .035156-.003907.066406-.011719.101562-.015625.289063-.03125.578126-.074219.867188-.132813.132812-.027343.265625-.066406.398438-.097656.179687-.046875.363281-.085937.542968-.140625.230469-.070312.453125-.15625.675782-.242188.082031-.03125.164062-.054687.242187-.089843.324219-.132813.636719-.285157.941406-.449219 17.457031-9.425781 37.167969-14.40625 57.007813-14.40625 66.167968 0 120 53.832031 120 120s-53.832032 120-120 120c-66.167969 0-120-53.832031-120-120 0-21.035156 5.558594-41.78125 16.078125-60 2.761719-4.785156 1.121093-10.898438-3.660157-13.660156-4.785156-2.761719-10.898437-1.125-13.660156 3.660156-10.183594 17.640625-16.371094 37.3125-18.183594 57.523438h-41.570312v-82.960938c11.636719-4.125 20-15.242188 20-28.277344 0-16.542968-13.457031-30-30-30s-30 13.457032-30 30c0 13.035156 8.359375 24.152344 20 28.277344v92.960938c0 5.523437 4.476562 10 10 10h51.203125c.410156 7.671874 1.445313 15.175781 3.042969 22.472656h-89.246094c-5.523438 0-10 4.480468-10 10v51.105468c-11.640625 4.128907-20 15.242188-20 28.28125 0 16.539063 13.457031 30 30 30s30-13.460937 30-30c0-13.039062-8.359375-24.152343-20-28.28125v-41.101562h85.238281c6.703125 17.472656 16.808594 33.277344 29.507813 46.585938v23.128906h-44.746094c-5.523438 0-10 4.476562-10 10v31.386718c-11.640625 4.128907-20 15.242188-20 28.28125 0 16.542969 13.457031 30 30 30s30-13.457031 30-30c0-13.035156-8.363281-24.152343-20-28.28125v-21.386718h44.746094c5.523437 0 10-4.476563 10-10v-15.773438c20.378906 14.574219 44.8125 23.820313 71.253906 25.695313v20.828125h-40c-5.523438 0-10 4.476562-10 10v27.253906c-11.640625 4.128906-20 15.242188-20 28.28125 0 16.542969 13.457031 30 30 30s30-13.457031 30-30c0-13.035156-8.359375-24.152344-20-28.28125v-17.253906h40c5.523438 0 10-4.476563 10-10v-30.828125c18.675781-1.324219 36.347656-6.328125 52.296875-14.289063v19.851563c0 5.519531 4.480469 10 10 10 5.523437 0 10-4.480469 10-10v-32.019531c10.652344-7.765626 20.171875-16.996094 28.261719-27.394532h67.441406c4.128906 11.640625 15.242188 20 28.277344 20 16.542968 0 30-13.457031 30-30 0-16.542968-13.457032-30-30-30-13.035156 0-24.148438 8.363282-28.277344 20h-54.453125c9.007813-16.847656 14.667969-35.738281 16.089844-55.785156zm86.363281-99.382812c5.515625 0 10 4.484374 10 10 0 5.511718-4.484375 9.996093-9.996094 10 0 0 0 0-.003906 0h-.003906c-5.511719-.003907-9.996094-4.488282-9.996094-10 0-5.515626 4.484375-10 10-10zm-60-100c5.515625 0 10 4.484374 10 10 0 5.511718-4.484375 10-10 10-5.511719 0-10-4.488282-10-10 0-5.515626 4.488281-10 10-10zm-116-46.617188c5.515625 0 10 4.484375 10 10 0 5.511719-4.484375 9.996094-9.996094 10h-.003906c-.003906 0-.003906 0-.003906 0-5.511719-.003906-9.996094-4.488281-9.996094-10 0-5.515625 4.484375-10 10-10zm-162.71875 42.289062c-5.515625 0-10-4.488281-10-10 0-5.515624 4.484375-10 10-10 5.511719 0 9.996094 4.484376 10 9.996094v.003906.003907c-.003906 5.511719-4.488281 9.996093-10 9.996093zm-78.28125 59.996094c5.515625 0 10 4.488282 10 10 0 5.515625-4.484375 10-9.996094 10h-.003906c-.003906 0-.003906 0-.003906 0-5.511719 0-9.996094-4.488281-9.996094-10 0-5.511718 4.484375-10 10-10zm-35 263.097656c-5.515625 0-10-4.484374-10-10 0-5.511718 4.484375-10 10-10s10 4.488282 10 10c0 5.515626-4.484375 10-10 10zm80 70c-5.511719 0-10-4.484374-10-10 0-5.511718 4.484375-9.996093 9.996094-10h.003906.003906c5.511719.003907 9.996094 4.488282 9.996094 10 0 5.515626-4.484375 10-10 10zm96 36.617188c-5.511719 0-10-4.484375-10-10 0-5.511719 4.484375-9.996094 9.996094-10h.007812.003906c5.511719.003906 9.996094 4.488281 9.996094 10-.003906 5.515625-4.488281 10-10.003906 10zm256.277344-170.214844c5.515625 0 10 4.488282 10 10 0 5.515625-4.484375 10-10 10-5.511719 0-10-4.484375-10-10 0-5.511718 4.488281-10 10-10zm0 0"/><path d="m153.890625 160.722656-.292969.316406c-3.765625 4.039063-3.539062 10.367188.503906 14.132813 1.925782 1.792969 4.371094 2.679687 6.8125 2.679687 2.679688 0 5.351563-1.070312 7.320313-3.1875l.222656-.234374c3.785157-4.023438 3.589844-10.351563-.433593-14.136719-4.019532-3.785157-10.347657-3.589844-14.132813.429687zm0 0"/><path d="m256 364.5c59.550781 0 108-48.449219 108-108s-48.449219-108-108-108-108 48.449219-108 108 48.449219 108 108 108zm0-196c48.523438 0 88 39.476562 88 88s-39.476562 88-88 88-88-39.476562-88-88 39.476562-88 88-88zm0 0"/><path d="m221 286.5h-5c-5.523438 0-10 4.476562-10 10s4.476562 10 10 10h5v10c0 5.523438 4.476562 10 10 10s10-4.476562 10-10v-10h20v10c0 5.523438 4.476562 10 10 10s10-4.476562 10-10v-10.425781c14.167969-2.386719 25-14.738281 25-29.574219 0-9.09375-4.070312-17.246094-10.476562-22.753906 3.445312-4.882813 5.476562-10.828125 5.476562-17.246094 0-13.035156-8.359375-24.152344-20-28.28125v-11.71875c0-5.523438-4.476562-10-10-10s-10 4.476562-10 10v10h-20v-10c0-5.523438-4.476562-10-10-10s-10 4.476562-10 10v10h-5c-5.523438 0-10 4.476562-10 10s4.476562 10 10 10h5zm20-60h30c5.515625 0 10 4.484375 10 10s-4.484375 10-10 10h-30zm35 60h-35v-20h35c5.515625 0 10 4.484375 10 10s-4.484375 10-10 10zm0 0"/><path d="m438.300781 433.085938v-31.386719c0-5.523438-4.476562-10-10-10h-31.035156c-5.523437 0-10 4.476562-10 10 0 5.523437 4.476563 10 10 10h21.035156v21.386719c-11.640625 4.128906-20 15.242187-20 28.28125 0 16.539062 13.457031 30 30 30 16.539063 0 30-13.460938 30-30 0-13.039063-8.363281-24.152344-20-28.28125zm-10 38.28125c-5.515625 0-10-4.488282-10-10 0-5.515626 4.484375-9.996094 9.996094-10h.003906.003907c5.511718.003906 9.996093 4.484374 9.996093 10 0 5.511718-4.488281 10-10 10zm0 0"/><path d="m368.535156 391.699219h-.273437c-5.519531 0-10 4.476562-10 10 0 5.523437 4.480469 10 10 10h.273437c5.519532 0 10-4.476563 10-10 0-5.523438-4.480468-10-10-10zm0 0"/></svg>