<svg height="511.99999pt" viewBox="1 1 511.99999 511.99999" fill="#2982dd" width="511.99999pt" xmlns="http://www.w3.org/2000/svg"><path d="m87.917969 294.476562h5.125v5.125c0 5.523438 4.476562 10 10 10 5.523437 0 10-4.476562 10-10v-5.125h5.125c5.523437 0 10-4.476562 10-10 0-5.523437-4.476563-10-10-10h-5.125v-5.125c0-5.523437-4.476563-10-10-10-5.523438 0-10 4.476563-10 10v5.125h-5.125c-5.523438 0-10 4.476563-10 10 0 5.523438 4.476562 10 10 10zm0 0"/><path d="m225.125 274.476562h-30.25c-5.523438 0-10 4.480469-10 10 0 5.523438 4.476562 10 10 10h30.25c5.523438 0 10-4.476562 10-10 0-5.519531-4.476562-10-10-10zm0 0"/><path d="m224.144531 402.824219 8.054688-8.054688c3.902343-3.902343 3.902343-10.234375 0-14.140625-3.90625-3.90625-10.238281-3.90625-14.144531 0l-8.054688 8.054688-8.054688-8.054688c-3.902343-3.90625-10.234374-3.90625-14.140624 0-3.90625 3.902344-3.90625 10.234375 0 14.140625l8.054687 8.054688-8.054687 8.058593c-3.90625 3.902344-3.90625 10.234376 0 14.140626 1.953124 1.953124 4.511718 2.929687 7.070312 2.929687s5.121094-.976563 7.070312-2.929687l8.058594-8.054688 8.054688 8.054688c1.953125 1.953124 4.511718 2.929687 7.070312 2.929687s5.117188-.976563 7.070313-2.929687c3.90625-3.90625 3.90625-10.238282 0-14.144532zm0 0"/><path d="m125.242188 380.628906c-3.90625-3.90625-10.238282-3.90625-14.144532 0l-30.25 30.25c-3.90625 3.90625-3.90625 10.238282 0 14.144532 1.953125 1.953124 4.511719 2.929687 7.070313 2.929687 2.558593 0 5.117187-.976563 7.070312-2.929687l30.253907-30.253907c3.902343-3.90625 3.902343-10.238281 0-14.140625zm0 0"/><path d="m301.957031 337.464844h30c5.523438 0 10-4.480469 10-10 0-5.523438-4.476562-10-10-10h-30c-5.523437 0-10 4.476562-10 10 0 5.519531 4.476563 10 10 10zm0 0"/><path d="m331.957031 349.835938h-30c-5.523437 0-10 4.480468-10 10 0 5.523437 4.476563 10 10 10h30c5.523438 0 10-4.476563 10-10 0-5.519532-4.476562-10-10-10zm0 0"/><path d="m89.765625 95.5625h.269531c5.519532 0 10-4.476562 10-10 0-5.519531-4.480468-10-10-10h-.269531c-5.523437 0-10 4.480469-10 10 0 5.523438 4.476563 10 10 10zm0 0"/><path d="m69.566406 472h280.871094c16.539062 0 29.996094-13.457031 29.996094-30v-196.699219c0-16.539062-13.457032-30-29.996094-30h-280.871094c-16.542968 0-30 13.460938-30 30v196.699219c0 16.542969 13.457032 30 30 30zm-10-30v-88.347656h86.957032v98.347656h-76.957032c-5.515625 0-10-4.488281-10-10zm106.953125-108.351562v-98.347657h86.957031v98.351563zm0 20.003906h86.957031v98.347656h-86.957031zm193.917969-108.351563v196.699219c0 5.511719-4.488281 10-10 10h-76.957031v-216.699219h76.957031c5.511719 0 10 4.488281 10 10zm-290.871094-10h76.957032v98.351563h-86.957032v-88.351563c0-5.511719 4.484375-10 10-10zm0 0"/><path d="m441.523438 107.25c3.445312-4.882812 5.476562-10.832031 5.476562-17.25 0-13.035156-8.359375-24.152344-20-28.28125v-11.71875c0-5.523438-4.476562-10-10-10s-10 4.476562-10 10v10h-20v-10c0-5.523438-4.476562-10-10-10s-10 4.476562-10 10v10h-5c-5.523438 0-10 4.480469-10 10 0 5.523438 4.476562 10 10 10h5v60h-5c-5.523438 0-10 4.476562-10 10 0 5.519531 4.476562 10 10 10h5v10c0 5.519531 4.476562 10 10 10s10-4.480469 10-10v-10h20v10c0 5.519531 4.476562 10 10 10s10-4.480469 10-10v-10.425781c14.167969-2.386719 25-14.738281 25-29.574219 0-9.089844-4.070312-17.246094-10.476562-22.75zm-54.523438-27.25h30c5.511719 0 10 4.484375 10 10 0 5.511719-4.488281 10-10 10h-30zm35 60h-35v-20h35c5.511719 0 10 4.484375 10 10 0 5.511719-4.484375 10-10 10zm0 0"/><path d="m512 110c0-60.652344-49.347656-110-110-110-48.632812 0-89.984375 31.726562-104.472656 75.5625h-167.527344c-5.523438 0-10 4.480469-10 10 0 5.523438 4.476562 10 10 10h162.949219c-.621094 4.726562-.949219 9.542969-.949219 14.4375 0 1.867188.050781 3.722656.140625 5.566406h-222.574219c-16.542968 0-30 13.457032-30 29.996094v26.957031c0 16.542969 13.457032 30 30 30h273c16.625 10.71875 36.3125 17.074219 57.433594 17.453125v262.027344c0 5.511719-4.488281 10-10 10h-360c-5.515625 0-10-4.488281-10-10v-376.4375c0-5.511719 4.484375-10 10-10h31.035156c5.523438 0 10-4.476562 10-10 0-5.519531-4.476562-10-10-10h-31.035156c-16.542969 0-30 13.460938-30 30v376.4375c0 16.542969 13.457031 30 30 30h360c16.539062 0 30-13.457031 30-30v-263.480469c52.121094-8.617187 92-53.996093 92-108.519531zm-452.433594 62.519531v-26.957031c0-5.511719 4.484375-9.996094 10-9.996094h225.441406c1.101563 4.609375 2.496094 9.109375 4.160157 13.476563h-27.71875c-5.523438 0-10 4.476562-10 10 0 5.519531 4.476562 10 10 10h37.78125c3.035156 4.753906 6.429687 9.257812 10.136719 13.476562h-249.800782c-5.515625 0-10-4.484375-10-10zm342.433594 27.480469c-49.625 0-90-40.375-90-90s40.375-90 90-90 90 40.375 90 90-40.375 90-90 90zm0 0"/><path d="m242.71875 149.042969h-.238281c-5.519531 0-10 4.480469-10 10 0 5.523437 4.480469 10 10 10h.238281c5.523438 0 10-4.476563 10-10 0-5.519531-4.476562-10-10-10zm0 0"/></svg>