<svg height="511.99999pt" viewBox="1 1 511.99999 511.99999" fill="#2982dd" width="511.99999pt" xmlns="http://www.w3.org/2000/svg"><path d="m271 117c-9.359375 0-17.847656 3.800781-24 9.941406-6.152344-6.140625-14.640625-9.941406-24-9.941406-18.746094 0-34 15.25-34 34 0 18.746094 15.253906 34 34 34 9.359375 0 17.847656-3.800781 24-9.941406 6.152344 6.140625 14.640625 9.941406 24 9.941406 18.746094 0 34-15.253906 34-34 0-18.75-15.253906-34-34-34zm-48 48c-7.71875 0-14-6.28125-14-14s6.28125-14 14-14c7.714844 0 13.992188 6.273438 14 13.988281v.011719.011719c-.007812 7.714843-6.285156 13.988281-14 13.988281zm48 0c-7.714844 0-13.992188-6.273438-14-13.988281 0-.003907 0-.007813 0-.011719 0-.007812 0-.007812 0-.015625.007812-7.714844 6.285156-13.984375 14-13.984375 7.71875 0 14 6.277344 14 14 0 7.71875-6.28125 14-14 14zm0 0"/><path d="m295 40h-250c-5.519531 0-10 4.476562-10 10v35c0 5.523438 4.480469 10 10 10h250c5.519531 0 10-4.476562 10-10v-35c0-5.523438-4.480469-10-10-10zm-10 35h-230v-15h230zm0 0"/><path d="m45 165c-5.519531 0-10 4.476562-10 10s4.480469 10 10 10h27.542969c5.519531 0 10-4.476562 10-10s-4.480469-10-10-10zm0 0"/><path d="m140.078125 165h-24.285156c-5.523438 0-10 4.476562-10 10s4.476562 10 10 10h24.285156c5.519531 0 10-4.476562 10-10s-4.476563-10-10-10zm0 0"/><path d="m140.078125 117h-95.078125c-5.519531 0-10 4.476562-10 10s4.480469 10 10 10h95.078125c5.519531 0 10-4.476562 10-10s-4.476563-10-10-10zm0 0"/><path d="m73.730469 20h.269531c5.523438 0 10-4.476562 10-10s-4.476562-10-10-10h-.269531c-5.523438 0-10 4.476562-10 10s4.476562 10 10 10zm0 0"/><path d="m340 190v-160c0-16.542969-13.457031-30-30-30h-196.035156c-5.519532 0-10 4.476562-10 10s4.480468 10 10 10h196.035156c5.515625 0 10 4.484375 10 10v160c0 5.511719-4.484375 10-10 10h-280c-5.515625 0-10-4.488281-10-10v-160c0-5.515625 4.484375-10 10-10h15c5.523438 0 10-4.476562 10-10s-4.476562-10-10-10h-15c-16.542969 0-30 13.457031-30 30v160c0 16.542969 13.457031 30 30 30h280c16.542969 0 30-13.457031 30-30zm0 0"/><path d="m441.523438 399.25c3.445312-4.882812 5.476562-10.832031 5.476562-17.25 0-13.035156-8.359375-24.152344-20-28.28125v-11.71875c0-5.523438-4.476562-10-10-10s-10 4.476562-10 10v10h-20v-10c0-5.523438-4.476562-10-10-10-5.519531 0-10 4.476562-10 10v10h-5c-5.519531 0-10 4.480469-10 10 0 5.523438 4.480469 10 10 10h5v60h-5c-5.519531 0-10 4.476562-10 10s4.480469 10 10 10h5v10c0 5.523438 4.480469 10 10 10 5.523438 0 10-4.476562 10-10v-10h20v10c0 5.523438 4.476562 10 10 10s10-4.476562 10-10v-10.425781c14.167969-2.386719 25-14.734375 25-29.574219 0-9.089844-4.070312-17.242188-10.476562-22.75zm-54.523438-27.25h30c5.515625 0 10 4.488281 10 10 0 5.515625-4.484375 10-10 10h-30zm35 60h-35v-20h35c5.515625 0 10 4.488281 10 10 0 5.515625-4.484375 10-10 10zm0 0"/><path d="m402 292c-60.652344 0-110 49.347656-110 110s49.347656 110 110 110 110-49.347656 110-110-49.347656-110-110-110zm0 200c-49.625 0-90-40.375-90-90s40.375-90 90-90 90 40.375 90 90-40.375 90-90 90zm0 0"/><path d="m462.4375 182.375c0-5.523438-4.480469-10-10-10-5.523438 0-10 4.476562-10 10v20c0 5.523438 4.476562 10 10 10 5.519531 0 10-4.476562 10-10zm0 0"/><path d="m452.4375 252.375c-5.523438 0-10 4.476562-10 10v20c0 5.523438 4.476562 10 10 10 5.519531 0 10-4.476562 10-10v-20c0-5.523438-4.480469-10-10-10zm0 0"/><path d="m442.4375 105v17.375c0 5.523438 4.476562 10 10 10 5.519531 0 10-4.476562 10-10v-17.386719c-.003906-1.308593-.089844-2.625-.261719-3.914062-.722656-5.476563-5.734375-9.332031-11.222656-8.605469-5.476563.726562-9.328125 5.75-8.605469 11.226562.058594.429688.085938.871094.089844 1.304688zm0 0"/><path d="m140.078125 245.84375c-5.523437 0-10 4.476562-10 10v20c0 5.523438 4.476563 10 10 10 5.519531 0 10-4.476562 10-10v-20c0-5.523438-4.476563-10-10-10zm0 0"/><path d="m182.511719 392h-20c-5.519531 0-10 4.476562-10 10s4.480469 10 10 10h20c5.523437 0 10-4.476562 10-10s-4.476563-10-10-10zm0 0"/><path d="m140.078125 325.84375c-5.523437 0-10 4.476562-10 10v20c0 5.523438 4.476563 10 10 10 5.519531 0 10-4.476562 10-10v-20c0-5.523438-4.476563-10-10-10zm0 0"/><path d="m270.519531 407.972656c.105469-.140625.210938-.273437.308594-.417968.097656-.148438.183594-.296876.273437-.449219.078126-.128907.160157-.257813.230469-.390625.082031-.152344.152344-.308594.222657-.464844.066406-.140625.136718-.277344.195312-.421875.066406-.152344.113281-.304687.171875-.457031.054687-.15625.113281-.308594.160156-.464844s.082031-.316406.121094-.472656c.039063-.160156.082031-.316406.117187-.476563.035157-.1875.058594-.371093.085938-.558593.019531-.136719.042969-.273438.058594-.410157.0625-.660156.0625-1.320312 0-1.980469-.015625-.136718-.039063-.265624-.058594-.402343-.027344-.1875-.050781-.378907-.085938-.5625-.03125-.160157-.078124-.316407-.117187-.46875-.039063-.160157-.074219-.320313-.121094-.480469-.046875-.15625-.105469-.304688-.160156-.457031-.054687-.15625-.105469-.3125-.171875-.464844-.058594-.140625-.128906-.277344-.191406-.417969-.074219-.15625-.144532-.316406-.226563-.46875-.070312-.132812-.152343-.257812-.226562-.382812-.09375-.152344-.179688-.308594-.277344-.457032-.09375-.140624-.199219-.273437-.300781-.410156-.09375-.125-.179688-.25-.28125-.375-.203125-.246094-.417969-.484375-.644532-.710937-.003906-.007813-.007812-.015625-.015624-.019531l-22.238282-22.238282c-3.90625-3.90625-10.234375-3.90625-14.144531 0-3.902344 3.902344-3.902344 10.234375 0 14.140625l5.8125 5.808594c-3.792969 1.421875-6.5 5.070313-6.5 9.359375s2.707031 7.9375 6.5 9.359375l-5.808594 5.808594c-3.90625 3.90625-3.90625 10.238281 0 14.144531 1.949219 1.953125 4.511719 2.929688 7.070313 2.929688s5.117187-.980469 7.070312-2.929688l22.238282-22.242188c.007812-.003906.011718-.011718.015624-.015624.226563-.230469.441407-.46875.644532-.714844.097656-.121094.183594-.246094.273437-.367188zm0 0"/><path d="m373.207031 79.03125c-.101562.136719-.207031.273438-.300781.414062-.101562.148438-.1875.300782-.277344.453126-.074218.128906-.15625.253906-.226562.386718-.082032.152344-.152344.3125-.226563.46875-.066406.140625-.136719.277344-.195312.417969-.0625.152344-.113281.308594-.167969.464844-.054688.152343-.113281.300781-.160156.457031-.050782.15625-.085938.316406-.125.476562-.039063.15625-.082032.3125-.113282.472657-.039062.1875-.058593.375-.085937.5625-.019531.132812-.042969.269531-.058594.40625-.066406.65625-.066406 1.320312 0 1.976562.015625.136719.039063.269531.058594.40625.027344.1875.046875.375.085937.5625.03125.160157.074219.316407.113282.472657.042968.15625.074218.316406.125.476562.046875.15625.105468.304688.160156.457031.054688.15625.105469.3125.167969.464844.058593.140625.128906.277344.195312.417969.074219.15625.144531.316406.226563.46875.070312.132812.148437.257812.226562.386718.089844.152344.175782.304688.277344.453126.09375.140624.199219.273437.300781.410156.09375.125.179688.253906.277344.375.207031.246094.421875.484375.644531.710937.007813.007813.011719.015625.019532.019531l22.238281 22.242188c1.953125 1.949219 4.511719 2.925781 7.070312 2.925781 2.558594 0 5.117188-.976562 7.070313-2.925781 3.90625-3.90625 3.90625-10.238281 0-14.144531l-5.8125-5.808594c3.796875-1.421875 6.5-5.070313 6.5-9.359375s-2.707032-7.9375-6.5-9.359375l5.8125-5.808594c3.90625-3.90625 3.90625-10.238281 0-14.144531-3.90625-3.902344-10.234375-3.902344-14.144532 0l-22.238281 22.242188c-.003906.003906-.007812.011718-.015625.015624-.226562.226563-.441406.46875-.644531.714844-.097656.121094-.183594.25-.277344.371094zm0 0"/></svg>